name Walk10.mot
datacolumns 19
datarows 25
range 2.23000000 2.35000000
endheader

                time	   L_ground_force_vx	   L_ground_force_vy	   L_ground_force_vz	   L_ground_force_px	   L_ground_force_py	   L_ground_force_pz	   R_ground_force_vx	   R_ground_force_vy	   R_ground_force_vz	   R_ground_force_px	   R_ground_force_py	   R_ground_force_pz	   L_ground_torque_x	   L_ground_torque_y	   L_ground_torque_z	   R_ground_torque_x	   R_ground_torque_y	   R_ground_torque_z	
          2.23000000	         -0.23929062	         -0.35918823	         -0.01782576	          0.00664295	          0.00000000	          0.00373904	         -0.00000000	         -0.00000000	         -0.00000000	          0.00000000	          0.00000000	          0.00000000	          0.00000000	         -0.00769235	          0.00000000	          0.00000000	         -0.00000000	          0.00000000	
          2.23500000	          0.21154036	         -0.71919110	         -0.06582486	         -0.01953353	          0.00000000	         -0.00987996	          0.00000000	         -0.00000000	          0.00000000	          0.00000000	          0.00000000	         -0.00000000	          0.00000000	         -0.00662475	          0.00000000	          0.00000000	          0.00000000	          0.00000000	
          2.24000000	          0.08553365	         -0.16354027	         -0.01660128	         -0.00622128	          0.00000000	         -0.00318783	          0.00000000	         -0.00000000	          0.00000000	          0.00000000	          0.00000000	         -0.00000000	          0.00000000	         -0.00103074	          0.00000000	          0.00000000	          0.00000000	          0.00000000	
          2.24500000	          0.00113057	          0.03199014	          0.00246809	          0.00036779	          0.00000000	          0.00017444	          0.00000000	          0.00000000	          0.00000000	         -0.00000000	          0.00000000	          0.00000000	          0.00000000	          0.00042862	          0.00000000	          0.00000000	          0.00000000	          0.00000000	
          2.25000000	         -0.00896313	          0.02675430	          0.00249644	          0.00077865	          0.00000000	          0.00039504	         -0.00000000	          0.00000000	         -0.00000000	         -0.00000000	          0.00000000	          0.00000000	          0.00000000	          0.00023254	          0.00000000	          0.00000000	         -0.00000000	          0.00000000	
          2.25500000	         -0.00264661	          0.00406239	          0.00043515	          0.00017935	          0.00000000	          0.00009231	         -0.00000000	          0.00000000	         -0.00000000	         -0.00000000	          0.00000000	          0.00000000	          0.00000000	          0.00001897	          0.00000000	          0.00000000	         -0.00000000	          0.00000000	
          2.26000000	          0.00022736	         -0.00175925	         -0.00014836	         -0.00003399	          0.00000000	         -0.00001687	          0.00000000	         -0.00000000	          0.00000000	          0.00000000	          0.00000000	         -0.00000000	          0.00000000	         -0.00001989	          0.00000000	          0.00000000	         -0.00000000	          0.00000000	
          2.26500000	          0.00035121	         -0.00093621	         -0.00008900	         -0.00002903	          0.00000000	         -0.00001477	          0.00000000	         -0.00000000	          0.00000000	          0.00000000	          0.00000000	         -0.00000000	          0.00000000	         -0.00000766	          0.00000000	          0.00000000	          0.00000000	          0.00000000	
          2.27000000	          0.00007423	         -0.00007273	         -0.00000896	         -0.00000449	          0.00000000	         -0.00000233	          0.00000000	         -0.00000000	          0.00000000	          0.00000000	          0.00000000	         -0.00000000	          0.00000000	          0.00000000	          0.00000000	          0.00000000	          0.00000000	          0.00000000	
          2.27500000	         -0.00001721	          0.00008111	          0.00000713	          0.00000189	          0.00000000	          0.00000095	         -0.00000000	          0.00000000	         -0.00000000	         -0.00000000	          0.00000000	          0.00000000	          0.00000000	          0.00000083	          0.00000000	          0.00000000	          0.00000000	          0.00000000	
          2.28000000	         -0.00001290	          0.00003073	          0.00000298	          0.00000102	          0.00000000	          0.00000052	         -0.00000000	          0.00000000	         -0.00000000	         -0.00000000	          0.00000000	          0.00000000	          0.00000000	          0.00000023	          0.00000000	          0.00000000	         -0.00000000	          0.00000000	
          2.28500000	         -0.00000177	         -0.00000015	          0.00000007	          0.00000008	          0.00000000	          0.00000004	         -0.00000000	         -0.00000000	         -0.00000000	         -0.00000000	          0.00000000	          0.00000000	          0.00000000	         -0.00000002	          0.00000000	          0.00000000	         -0.00000000	          0.00000000	
          2.29000000	          0.00000090	         -0.00000338	         -0.00000031	         -0.00000009	          0.00000000	         -0.00000004	          0.00000000	         -0.00000000	          0.00000000	          0.00000000	          0.00000000	         -0.00000000	          0.00000000	         -0.00000003	          0.00000000	          0.00000000	          0.00000000	          0.00000000	
          2.29500000	          0.00000045	         -0.00000093	         -0.00000009	         -0.00000003	          0.00000000	         -0.00000002	          0.00000000	         -0.00000000	          0.00000000	          0.00000000	          0.00000000	         -0.00000000	          0.00000000	         -0.00000001	          0.00000000	          0.00000000	          0.00000000	          0.00000000	
          2.30000000	          0.00000003	          0.00000010	          0.00000001	          0.00000000	          0.00000000	         -0.00000000	          0.00000000	          0.00000000	          0.00000000	         -0.00000000	          0.00000000	          0.00000000	          0.00000000	          0.00000000	          0.00000000	          0.00000000	          0.00000000	          0.00000000	
          2.30500000	         -0.00000004	          0.00000013	          0.00000001	          0.00000000	          0.00000000	          0.00000000	         -0.00000000	          0.00000000	         -0.00000000	         -0.00000000	          0.00000000	          0.00000000	          0.00000000	          0.00000000	          0.00000000	          0.00000000	         -0.00000000	          0.00000000	
          2.31000000	         -0.00000001	          0.00000003	          0.00000000	          0.00000000	          0.00000000	          0.00000000	         -0.00000000	          0.00000000	         -0.00000000	         -0.00000000	          0.00000000	          0.00000000	          0.00000000	          0.00000000	          0.00000000	          0.00000000	         -0.00000000	          0.00000000	
          2.31500000	          0.00000000	         -0.00000001	         -0.00000000	         -0.00000000	          0.00000000	         -0.00000000	         -0.00000000	         -0.00000000	         -0.00000000	          0.00000000	          0.00000000	         -0.00000000	          0.00000000	         -0.00000000	          0.00000000	          0.00000000	         -0.00000000	          0.00000000	
          2.32000000	          0.00000000	         -0.00000000	         -0.00000000	         -0.00000000	          0.00000000	         -0.00000000	          0.00000000	         -0.00000000	          0.00000000	          0.00000000	          0.00000000	         -0.00000000	          0.00000000	         -0.00000000	          0.00000000	          0.00000000	          0.00000000	          0.00000000	
          2.32500000	          0.00000000	         -0.00000000	         -0.00000000	         -0.00000000	          0.00000000	         -0.00000000	          0.00000000	         -0.00000000	          0.00000000	          0.00000000	          0.00000000	         -0.00000000	          0.00000000	         -0.00000000	          0.00000000	          0.00000000	          0.00000000	          0.00000000	
          2.33000000	         -0.00000000	          0.00000000	          0.00000000	          0.00000000	          0.00000000	          0.00000000	         -0.00000000	          0.00000000	         -0.00000000	         -0.00000000	          0.00000000	          0.00000000	          0.00000000	          0.00000000	          0.00000000	          0.00000000	          0.00000000	          0.00000000	
          2.33500000	         -0.00000000	          0.00000000	          0.00000000	          0.00000000	          0.00000000	          0.00000000	         -0.00000000	          0.00000000	         -0.00000000	         -0.00000000	          0.00000000	          0.00000000	          0.00000000	          0.00000000	          0.00000000	          0.00000000	         -0.00000000	          0.00000000	
          2.34000000	         -0.00000000	          0.00000000	          0.00000000	          0.00000000	          0.00000000	          0.00000000	         -0.00000000	          0.00000000	         -0.00000000	         -0.00000000	          0.00000000	          0.00000000	          0.00000000	         -0.00000000	          0.00000000	          0.00000000	         -0.00000000	          0.00000000	
          2.34500000	          0.00000000	         -0.00000000	         -0.00000000	         -0.00000000	          0.00000000	         -0.00000000	          0.00000000	         -0.00000000	          0.00000000	          0.00000000	          0.00000000	         -0.00000000	          0.00000000	         -0.00000000	          0.00000000	          0.00000000	         -0.00000000	          0.00000000	
          2.35000000	          0.00000000	         -0.00000000	         -0.00000000	         -0.00000000	          0.00000000	         -0.00000000	          0.00000000	         -0.00000000	          0.00000000	          0.00000000	          0.00000000	         -0.00000000	          0.00000000	         -0.00000000	          0.00000000	          0.00000000	          0.00000000	          0.00000000	
